<svg width="16" height="14" viewBox="0 0 16 14" fill="none" xmlns="http://www.w3.org/2000/svg">
<path d="M11.8335 6.23869C11.2551 6.15457 10.7124 5.91789 10.2657 5.55501C9.81911 5.19213 9.48613 4.7173 9.3039 4.18341C9.12166 3.64951 9.09732 3.07751 9.23359 2.53111C9.36985 1.98471 9.66137 1.48536 10.0757 1.08869C11.3106 -0.0973588 13.6867 -0.455671 14.9216 0.73038C15.0031 0.808614 15.0784 0.892549 15.1469 0.981492L11.8335 6.23869Z" fill="url(#paint0_linear)"/>
<path d="M14.5487 5.38404C14.198 5.72156 13.7694 5.97486 13.2976 6.12336C12.8259 6.27187 12.3243 6.31139 11.8336 6.23871C11.6381 5.6843 11.571 5.09554 11.6372 4.51364C11.7034 3.93174 11.9012 3.37076 12.2167 2.86997C12.5323 2.36918 12.958 1.94069 13.4641 1.61449C13.9702 1.28828 14.5444 1.07225 15.1465 0.981506C16.1057 2.21553 15.7015 4.27729 14.5487 5.38404Z" fill="url(#paint1_linear)"/>
<path d="M3.84854 6.23869C4.42695 6.15457 4.96971 5.91789 5.41634 5.55501C5.86297 5.19213 6.19594 4.7173 6.37818 4.18341C6.56042 3.64951 6.58476 3.07751 6.44849 2.53111C6.31223 1.98471 6.02071 1.48536 5.6064 1.08869C4.37146 -0.0973588 1.99537 -0.455671 0.760941 0.73038C0.679179 0.808483 0.603701 0.892428 0.535156 0.981492L3.84854 6.23869Z" fill="url(#paint2_linear)"/>
<path d="M1.13403 5.38404C1.48459 5.72155 1.91312 5.97485 2.3848 6.12336C2.85647 6.27186 3.35797 6.31139 3.84855 6.23871C3.9958 5.82273 4.07071 5.38629 4.07025 4.94692C4.07001 3.98978 3.71365 3.06422 3.06544 2.33719C2.41723 1.61017 1.51985 1.12954 0.535165 0.981995C-0.42098 2.21553 -0.0193582 4.27729 1.13403 5.38404Z" fill="url(#paint3_linear)"/>
<path d="M2.37432 2.65754C2.27766 2.56513 2.1615 2.49369 2.03367 2.44802C1.90584 2.40236 1.76931 2.38353 1.63326 2.39281C1.49722 2.40208 1.36482 2.43925 1.24499 2.5018C1.12516 2.56436 1.02068 2.65084 0.938577 2.75544C0.661235 3.10545 0.412941 3.47583 0.195984 3.86317C0.378604 4.43426 0.69985 4.95552 1.13327 5.38404C1.38193 5.62333 1.67047 5.82103 1.98697 5.96899L2.62253 3.5264C2.66269 3.37331 2.66093 3.21285 2.61744 3.06061C2.57395 2.90837 2.4902 2.76952 2.37432 2.65754Z" fill="#FD748D"/>
<path d="M0.795615 8.65094C0.756299 8.36467 0.736719 8.07622 0.737003 7.78747C0.752873 5.98794 1.50833 4.26731 2.83888 3.00021C4.16942 1.73311 5.96731 1.02216 7.84107 1.02216C9.71483 1.02216 11.5127 1.73311 12.8433 3.00021C14.1738 4.26731 14.9293 5.98794 14.9451 7.78747C14.9457 8.07639 14.9261 8.36502 14.8865 8.65143L0.795615 8.65094Z" fill="url(#paint4_linear)"/>
<path d="M14.887 8.65142C14.4364 11.8708 11.4533 13.123 7.84127 13.123C4.22923 13.123 1.2456 11.8708 0.795563 8.65093C2.63038 6.96608 4.4652 7.55984 6.40196 4.04476C6.5402 3.7937 6.74775 3.58404 7.00184 3.43876C7.19175 3.32972 7.40272 3.25881 7.62198 3.23032C7.84124 3.20182 8.06424 3.21634 8.27749 3.27298C8.49074 3.32963 8.68982 3.42724 8.86267 3.55989C9.03552 3.69254 9.17856 3.85749 9.28314 4.04476C11.2163 7.55984 13.0547 6.96608 14.8895 8.65142H14.887Z" fill="url(#paint5_linear)"/>
<path d="M3.28227 7.89811C3.71013 7.89811 4.05697 7.6303 4.05697 7.29995C4.05697 6.96959 3.71013 6.70178 3.28227 6.70178C2.85441 6.70178 2.50757 6.96959 2.50757 7.29995C2.50757 7.6303 2.85441 7.89811 3.28227 7.89811Z" fill="#FFAECF"/>
<path d="M12.3998 7.89811C12.8277 7.89811 13.1745 7.6303 13.1745 7.29995C13.1745 6.96959 12.8277 6.70178 12.3998 6.70178C11.972 6.70178 11.6251 6.96959 11.6251 7.29995C11.6251 7.6303 11.972 7.89811 12.3998 7.89811Z" fill="#FFAECF"/>
<path d="M4.61049 7.29993C5.45889 7.29993 6.14665 6.6394 6.14665 5.82459C6.14665 5.00978 5.45889 4.34924 4.61049 4.34924C3.7621 4.34924 3.07434 5.00978 3.07434 5.82459C3.07434 6.6394 3.7621 7.29993 4.61049 7.29993Z" fill="white"/>
<path d="M11.0716 7.29993C11.92 7.29993 12.6078 6.6394 12.6078 5.82459C12.6078 5.00978 11.92 4.34924 11.0716 4.34924C10.2232 4.34924 9.53546 5.00978 9.53546 5.82459C9.53546 6.6394 10.2232 7.29993 11.0716 7.29993Z" fill="white"/>
<path d="M4.61052 6.7042C5.11635 6.7042 5.5264 6.31038 5.5264 5.82457C5.5264 5.33877 5.11635 4.94495 4.61052 4.94495C4.1047 4.94495 3.69464 5.33877 3.69464 5.82457C3.69464 6.31038 4.1047 6.7042 4.61052 6.7042Z" fill="#383842"/>
<path d="M11.0716 6.7042C11.5774 6.7042 11.9875 6.31038 11.9875 5.82457C11.9875 5.33877 11.5774 4.94495 11.0716 4.94495C10.5658 4.94495 10.1557 5.33877 10.1557 5.82457C10.1557 6.31038 10.5658 6.7042 11.0716 6.7042Z" fill="#383842"/>
<path d="M8.35092 7.77034C8.16897 7.76894 7.99156 7.71561 7.84125 7.61713C7.69108 7.71588 7.51358 7.76924 7.33158 7.77034C7.19889 7.76803 7.06813 7.7393 6.94759 7.68597C6.82705 7.63263 6.71935 7.55585 6.63129 7.46049C6.58662 7.4117 6.56352 7.34811 6.56688 7.28322C6.57024 7.21833 6.59981 7.15726 6.64931 7.11298C6.6988 7.06869 6.76432 7.04468 6.83195 7.04605C6.89958 7.04741 6.96399 7.07404 7.01151 7.12028C7.04927 7.16722 7.09774 7.20523 7.15318 7.23137C7.20862 7.25752 7.26956 7.27112 7.33133 7.27112C7.39309 7.27112 7.45403 7.25752 7.50948 7.23137C7.56492 7.20523 7.61338 7.16722 7.65115 7.12028C7.67547 7.09523 7.7049 7.07526 7.7376 7.0616C7.77031 7.04794 7.80559 7.04089 7.84125 7.04089C7.87692 7.04089 7.9122 7.04794 7.9449 7.0616C7.97761 7.07526 8.00704 7.09523 8.03136 7.12028C8.06913 7.16722 8.11759 7.20523 8.17303 7.23137C8.22847 7.25752 8.28941 7.27112 8.35118 7.27112C8.41294 7.27112 8.47389 7.25752 8.52933 7.23137C8.58477 7.20523 8.63323 7.16722 8.671 7.12028C8.71851 7.07404 8.78292 7.04741 8.85055 7.04605C8.91818 7.04468 8.9837 7.06869 9.0332 7.11298C9.08269 7.15726 9.11226 7.21833 9.11563 7.28322C9.11899 7.34811 9.09588 7.4117 9.05121 7.46049C8.96325 7.55584 8.85564 7.63261 8.73518 7.68595C8.61473 7.73929 8.48405 7.76802 8.35143 7.77034H8.35092Z" fill="#383842"/>
<defs>
<linearGradient id="paint0_linear" x1="982.868" y1="1488.3" x2="1675.18" y2="1488.3" gradientUnits="userSpaceOnUse">
<stop stop-color="#4F4C5F"/>
<stop offset="1" stop-color="#77718A"/>
</linearGradient>
<linearGradient id="paint1_linear" x1="11.6131" y1="3.62687" x2="15.6831" y2="3.62687" gradientUnits="userSpaceOnUse">
<stop stop-color="#FD869C"/>
<stop offset="1" stop-color="#FDB0BF"/>
</linearGradient>
<linearGradient id="paint2_linear" x1="-20.0457" y1="1488.3" x2="672.264" y2="1488.3" gradientUnits="userSpaceOnUse">
<stop stop-color="#77718A"/>
<stop offset="1" stop-color="#4F4C5F"/>
</linearGradient>
<linearGradient id="paint3_linear" x1="-0.000225107" y1="3.62687" x2="4.07032" y2="3.62687" gradientUnits="userSpaceOnUse">
<stop stop-color="#FDB0BF"/>
<stop offset="1" stop-color="#FD869C"/>
</linearGradient>
<linearGradient id="paint4_linear" x1="7.84144" y1="8.65119" x2="7.84144" y2="0.964159" gradientUnits="userSpaceOnUse">
<stop stop-color="#FDB58A"/>
<stop offset="1" stop-color="#3C2313"/>
</linearGradient>
<linearGradient id="paint5_linear" x1="7.84139" y1="13.1233" x2="7.84139" y2="3.21544" gradientUnits="userSpaceOnUse">
<stop stop-color="#FFF5E3"/>
<stop offset="1" stop-color="#F0A83E"/>
</linearGradient>
</defs>
</svg>
