<svg width="48" height="48" viewBox="0 0 48 48" fill="none" xmlns="http://www.w3.org/2000/svg">
<rect width="48" height="48" rx="24" fill="#786960"/>
<rect x="2.90909" y="2.90909" width="42.1818" height="41.4545" rx="20.7273" fill="#8A8787"/>
<g clip-path="url(#clip0)">
<path d="M35.3636 20.9436V14.0909C35.3636 12.5868 34.1405 11.3636 32.6363 11.3636H12.1818C10.6777 11.3636 9.45456 12.5868 9.45456 14.0909V27.7273C9.45456 29.2314 10.6777 30.4546 12.1819 30.4546H27.4726C28.3659 33.5977 31.2561 35.9091 34.6819 35.9091C36.0002 35.9091 37.2966 35.5622 38.4325 34.905C38.7581 34.7166 38.87 34.2998 38.6808 33.9735C38.4924 33.6473 38.0749 33.5347 37.7493 33.7252C36.8211 34.2619 35.7604 34.5455 34.6818 34.5455C31.298 34.5455 28.5454 31.7929 28.5454 28.4091C28.5454 25.0254 31.298 22.2727 34.6818 22.2727C38.0655 22.2727 40.8182 25.0254 40.8182 28.4091V29.091C40.8182 29.8427 40.2062 30.4546 39.4545 30.4546C38.7028 30.4546 38.0909 29.8427 38.0909 29.091V26.3637C38.0909 25.9868 37.786 25.6818 37.4091 25.6818C37.2257 25.6818 37.0609 25.756 36.9385 25.8736C36.3359 25.3366 35.5505 25 34.6818 25C32.8021 25 31.2727 26.5294 31.2727 28.409C31.2727 30.2887 32.8021 31.8182 34.6819 31.8182C35.6979 31.8182 36.6014 31.3624 37.2265 30.6547C37.7204 31.3564 38.5331 31.8182 39.4546 31.8182C40.9587 31.8182 42.1818 30.5951 42.1818 29.0909V28.409C42.1818 24.5037 39.1804 21.2897 35.3636 20.9436ZM12.1819 12.7272H32.6364C32.6648 12.7272 32.6886 12.7418 32.7166 12.7435L22.9698 20.744C22.6229 20.9624 22.1201 20.9171 21.8944 20.7786L12.1025 12.7434C12.1302 12.7417 12.1537 12.7272 12.1819 12.7272ZM34 20.9436C30.1833 21.2897 27.1818 24.5037 27.1818 28.4091C27.1818 28.6392 27.1959 28.866 27.2163 29.091H12.1819C11.4301 29.091 10.8182 28.479 10.8182 27.7273V14.0909C10.8182 13.8978 10.8609 13.7155 10.9336 13.5489L21.0895 21.8773C21.4863 22.1363 21.9424 22.2728 22.4092 22.2728C22.858 22.2728 23.2967 22.1463 23.6829 21.9066C23.7215 21.886 23.7582 21.8614 23.7928 21.8327L33.8846 13.5488C33.9574 13.7155 34.0001 13.8978 34.0001 14.091V20.9436H34ZM34.6819 30.4546C33.5539 30.4546 32.6364 29.5371 32.6364 28.4091C32.6364 27.2812 33.5539 26.3637 34.6819 26.3637C35.8098 26.3637 36.7273 27.2812 36.7273 28.4091C36.7273 29.5371 35.8098 30.4546 34.6819 30.4546Z" fill="white"/>
</g>
<defs>
<clipPath id="clip0">
<rect width="32.7273" height="32.7273" fill="white" transform="translate(9.45456 7.27272)"/>
</clipPath>
</defs>
</svg>
