<svg width="4" height="1" viewBox="0 0 4 1" fill="none" xmlns="http://www.w3.org/2000/svg">
<path d="M2.35092 0.770338C2.16897 0.76894 1.99156 0.71561 1.84125 0.617126C1.69108 0.715881 1.51358 0.769237 1.33158 0.770338C1.19889 0.76803 1.06813 0.739301 0.947594 0.685967C0.827054 0.632632 0.719349 0.555853 0.631293 0.460486C0.586623 0.411698 0.563517 0.348108 0.566881 0.283221C0.570244 0.218334 0.599813 0.157262 0.649307 0.112977C0.698801 0.0686914 0.764322 0.044681 0.831952 0.0460458C0.899582 0.0474105 0.963994 0.0740416 1.01151 0.120285C1.04927 0.167225 1.09774 0.205228 1.15318 0.231375C1.20862 0.257522 1.26956 0.271118 1.33133 0.271118C1.39309 0.271118 1.45403 0.257522 1.50948 0.231375C1.56492 0.205228 1.61338 0.167225 1.65115 0.120285C1.67547 0.0952337 1.7049 0.0752579 1.7376 0.0615995C1.77031 0.0479411 1.80559 0.0408936 1.84125 0.0408936C1.87692 0.0408936 1.9122 0.0479411 1.9449 0.0615995C1.97761 0.0752579 2.00704 0.0952337 2.03136 0.120285C2.06913 0.167225 2.11759 0.205228 2.17303 0.231375C2.22847 0.257522 2.28941 0.271118 2.35118 0.271118C2.41294 0.271118 2.47389 0.257522 2.52933 0.231375C2.58477 0.205228 2.63323 0.167225 2.671 0.120285C2.71851 0.0740416 2.78292 0.0474105 2.85055 0.0460458C2.91818 0.044681 2.9837 0.0686914 3.0332 0.112977C3.08269 0.157262 3.11226 0.218334 3.11563 0.283221C3.11899 0.348108 3.09588 0.411698 3.05121 0.460486C2.96325 0.555839 2.85564 0.632614 2.73518 0.68595C2.61473 0.739286 2.48405 0.768022 2.35143 0.770338H2.35092Z" fill="#383842"/>
</svg>
