<svg width="48" height="48" viewBox="0 0 48 48" fill="none" xmlns="http://www.w3.org/2000/svg">
<rect width="48" height="48" rx="24" fill="#786960"/>
<rect x="2.90909" y="2.90909" width="42.1818" height="41.4545" rx="20.7273" fill="#8A8787"/>
<g clip-path="url(#clip0)">
<path d="M33.137 27.5462C32.467 26.8485 31.6589 26.4755 30.8024 26.4755C29.9528 26.4755 29.1377 26.8416 28.4401 27.5393L26.2574 29.7151C26.0778 29.6184 25.8982 29.5286 25.7255 29.4388C25.4768 29.3144 25.242 29.197 25.0417 29.0727C22.9971 27.7741 21.139 26.0818 19.357 23.8922C18.4935 22.8008 17.9133 21.8822 17.492 20.9497C18.0584 20.4316 18.5833 19.8929 19.0945 19.3748C19.2879 19.1814 19.4813 18.9811 19.6747 18.7877C21.1252 17.3372 21.1252 15.4584 19.6747 14.0078L17.789 12.1221C17.5749 11.908 17.3538 11.687 17.1466 11.4659C16.7322 11.0377 16.297 10.5956 15.848 10.1812C15.178 9.51807 14.3768 9.1658 13.5341 9.1658C12.6914 9.1658 11.8763 9.51807 11.1856 10.1812C11.1787 10.1881 11.1787 10.1881 11.1718 10.195L8.8233 12.5642C7.93916 13.4483 7.43493 14.5259 7.32441 15.7761C7.15864 17.793 7.75267 19.6718 8.20855 20.9013C9.32753 23.9198 10.9991 26.7173 13.4926 29.7151C16.518 33.3276 20.1582 36.1803 24.3164 38.1903C25.9051 38.9432 28.0256 39.8343 30.3948 39.9862C30.5399 39.9931 30.6919 40.0001 30.83 40.0001C32.4256 40.0001 33.7656 39.4267 34.8155 38.287C34.8224 38.2732 34.8362 38.2663 34.8432 38.2525C35.2023 37.8173 35.6168 37.4236 36.0519 37.0023C36.3489 36.7191 36.6529 36.4221 36.9499 36.1112C37.6337 35.3998 37.9929 34.5709 37.9929 33.7213C37.9929 32.8648 37.6268 32.0428 36.9292 31.3521L33.137 27.5462ZM35.6099 34.8196C35.603 34.8196 35.603 34.8265 35.6099 34.8196C35.3405 35.1097 35.0642 35.3722 34.7672 35.6623C34.3182 36.0905 33.8623 36.5395 33.4341 37.0437C32.7364 37.7897 31.9145 38.142 30.8369 38.142C30.7333 38.142 30.6228 38.142 30.5192 38.1351C28.4677 38.0038 26.5613 37.2026 25.1315 36.5188C21.2219 34.6262 17.789 31.9392 14.9363 28.5339C12.5809 25.695 11.006 23.0702 9.96301 20.252C9.32063 18.5321 9.08578 17.1921 9.18939 15.9281C9.25846 15.1199 9.56929 14.4499 10.1426 13.8766L12.498 11.5212C12.8364 11.2035 13.1956 11.0308 13.5479 11.0308C13.9831 11.0308 14.3353 11.2933 14.5564 11.5143C14.5633 11.5212 14.5702 11.5281 14.5771 11.535C14.9984 11.9287 15.3991 12.3363 15.8204 12.7714C16.0345 12.9925 16.2556 13.2135 16.4766 13.4414L18.3623 15.3271C19.0945 16.0593 19.0945 16.7362 18.3623 17.4684C18.162 17.6687 17.9686 17.869 17.7683 18.0624C17.1881 18.6565 16.6355 19.209 16.0345 19.7478C16.0207 19.7616 16.0069 19.7685 16 19.7823C15.406 20.3764 15.5165 20.9566 15.6408 21.3503C15.6477 21.371 15.6546 21.3917 15.6615 21.4125C16.152 22.6005 16.8427 23.7195 17.8926 25.0526L17.8995 25.0595C19.8059 27.408 21.816 29.2385 24.0332 30.6406C24.3164 30.8202 24.6065 30.9653 24.8828 31.1034C25.1315 31.2278 25.3663 31.3452 25.5666 31.4695C25.5943 31.4833 25.6219 31.5041 25.6495 31.5179C25.8844 31.6353 26.1054 31.6906 26.3333 31.6906C26.9067 31.6906 27.2658 31.3314 27.3833 31.2139L29.7456 28.8516C29.9804 28.6168 30.3534 28.3336 30.7886 28.3336C31.2168 28.3336 31.5691 28.603 31.7832 28.8378C31.7901 28.8447 31.7901 28.8447 31.797 28.8516L35.603 32.6576C36.3144 33.3621 36.3144 34.0874 35.6099 34.8196Z" fill="white"/>
<path d="M24.9593 15.0577C26.769 15.3616 28.413 16.2181 29.7254 17.5305C31.0378 18.8429 31.8874 20.4869 32.1982 22.2966C32.2742 22.7525 32.6679 23.0702 33.1169 23.0702C33.1721 23.0702 33.2205 23.0633 33.2757 23.0564C33.7869 22.9735 34.1253 22.49 34.0425 21.9788C33.6695 19.7892 32.6334 17.793 31.0516 16.2112C29.4698 14.6295 27.4736 13.5934 25.284 13.2204C24.7728 13.1375 24.2962 13.4759 24.2064 13.9802C24.1166 14.4844 24.4482 14.9748 24.9593 15.0577Z" fill="white"/>
<path d="M39.962 21.7095C39.3472 18.1038 37.648 14.8229 35.0371 12.2119C32.4261 9.60093 29.1451 7.90173 25.5395 7.28698C25.0353 7.19719 24.5587 7.54255 24.4689 8.04679C24.386 8.55793 24.7244 9.03453 25.2356 9.12433C28.4544 9.67001 31.39 11.1965 33.7247 13.5243C36.0593 15.859 37.5789 18.7946 38.1246 22.0134C38.2006 22.4693 38.5943 22.787 39.0433 22.787C39.0986 22.787 39.1469 22.7801 39.2022 22.7732C39.7064 22.6972 40.0518 22.2137 39.962 21.7095Z" fill="white"/>
</g>
<defs>
<clipPath id="clip0">
<rect width="32.7273" height="32.7273" fill="white" transform="translate(7.27274 7.27274)"/>
</clipPath>
</defs>
</svg>
