<svg width="48" height="48" viewBox="0 0 48 48" fill="none" xmlns="http://www.w3.org/2000/svg">
<rect width="48" height="48" rx="24" fill="#786960"/>
<rect x="2.90909" y="2.90909" width="42.1818" height="41.4545" rx="20.7273" fill="#8A8787"/>
<g clip-path="url(#clip0)">
<path d="M29.1 28.8961C32.5826 23.4313 32.1448 24.1131 32.2452 23.9706C33.5131 22.1822 34.1832 20.0774 34.1832 17.8835C34.1832 12.0655 29.462 7.27274 23.6364 7.27274C17.8297 7.27274 13.0895 12.056 13.0895 17.8835C13.0895 20.076 13.7737 22.2359 15.0832 24.0484L18.1726 28.8961C14.8695 29.4037 9.25427 30.9164 9.25427 34.2472C9.25427 35.4613 10.0468 37.1917 13.8222 38.54C16.4584 39.4815 19.9438 40 23.6364 40C30.5414 40 38.0185 38.0522 38.0185 34.2472C38.0185 30.9158 32.4098 29.4047 29.1 28.8961ZM16.685 22.9937C16.6744 22.9772 16.6634 22.9611 16.6519 22.9452C15.5623 21.4461 15.0071 19.6695 15.0071 17.8835C15.0071 13.0883 18.8683 9.19035 23.6364 9.19035C28.3945 9.19035 32.2656 13.0901 32.2656 17.8835C32.2656 19.6724 31.721 21.3887 30.6903 22.8483C30.5979 22.9701 31.0798 22.2215 23.6364 33.9013L16.685 22.9937ZM23.6364 38.0824C16.0941 38.0824 11.1719 35.8654 11.1719 34.2472C11.1719 33.1595 13.7011 31.3711 19.3056 30.674L22.8278 36.2007C23.0038 36.477 23.3087 36.6442 23.6363 36.6442C23.9639 36.6442 24.2689 36.4769 24.4448 36.2007L27.9669 30.674C33.5716 31.3711 36.1009 33.1595 36.1009 34.2472C36.1009 35.8517 31.2229 38.0824 23.6364 38.0824Z" fill="white"/>
<path d="M23.6364 13.0895C20.9929 13.0895 18.8423 15.2401 18.8423 17.8835C18.8423 20.527 20.9929 22.6776 23.6364 22.6776C26.2798 22.6776 28.4304 20.527 28.4304 17.8835C28.4304 15.2401 26.2798 13.0895 23.6364 13.0895ZM23.6364 20.76C22.0503 20.76 20.76 19.4696 20.76 17.8835C20.76 16.2975 22.0503 15.0071 23.6364 15.0071C25.2224 15.0071 26.5128 16.2975 26.5128 17.8835C26.5128 19.4696 25.2224 20.76 23.6364 20.76Z" fill="white"/>
</g>
<defs>
<clipPath id="clip0">
<rect width="32.7273" height="32.7273" fill="white" transform="translate(7.27274 7.27274)"/>
</clipPath>
</defs>
</svg>
